<?xml version="1.0" encoding="UTF-8"?>
<svg id="Layer_2" data-name="Layer 2" xmlns="http://www.w3.org/2000/svg" xmlns:xlink="http://www.w3.org/1999/xlink" viewBox="0 0 1646.94 1118.34">
  <defs>
    <style>
      .cls-1 {
        fill: #3e3117;
      }

      .cls-2 {
        fill: url(#linear-gradient);
      }

      .cls-3 {
        fill: #5a1e03;
      }
    </style>
    <linearGradient id="linear-gradient" x1="1297.12" y1="666.78" x2="1297.12" y2="163.75" gradientUnits="userSpaceOnUse">
      <stop offset="0" stop-color="#5a1e03"/>
      <stop offset=".46" stop-color="#581f04"/>
      <stop offset=".62" stop-color="#532608"/>
      <stop offset=".72" stop-color="#4d2f0d"/>
      <stop offset=".72" stop-color="#473611"/>
      <stop offset=".75" stop-color="#354e1f"/>
      <stop offset=".77" stop-color="#2f5725"/>
      <stop offset=".83" stop-color="#2e5926"/>
      <stop offset=".88" stop-color="#2b5424"/>
      <stop offset="1" stop-color="#274e22"/>
    </linearGradient>
  </defs>
  <g id="Layer_1-2" data-name="Layer 1">
    <g>
      <g>
        <path class="cls-3" d="M694.76,615.35c-4.49-2.96-8.93-5.75-13.31-8.38l-69.99-52.9,61.12-106.46c.66-1.75,2.96-3.61,6.9-5.59,2.63-1.53,4.49-4.49,5.59-8.87,0-.44.05-.82.16-1.15.11-.33.16-.71.16-1.15,0-5.26-3.29-10.19-9.86-14.79-6.57-4.6-13.14-6.9-19.72-6.9s-11.17,2.74-13.8,8.21c-1.1,2.41-2.08,4.98-2.96,7.72-.88,2.74-1.86,5.42-2.96,8.05l-50.6,90.03v-73.93c0-2.41.87-5.37,2.63-8.87,1.75-3.5,2.63-6.24,2.63-8.21,0-1.75-.55-3.94-1.64-6.57-4.82-8.1-16.1-12.16-33.84-12.16-5.48,0-8.76.44-9.86,1.31-5.26,4.6-7.89,8.87-7.89,12.82,0,.88.33,2.08.99,3.61.66,1.53,1.37,3.12,2.14,4.76.76,1.64,1.48,3.23,2.14,4.77.66,1.53.99,2.96.99,4.27l7.89,178.42c0,2.41-1.15,4.82-3.45,7.23-2.3,2.41-3.45,4.82-3.45,7.23,0,5.91,3.83,11.5,11.5,16.76,3.72,2.19,7.23,3.89,10.51,5.09,3.29,1.2,6.46,1.81,9.53,1.81,5.69,0,10.51-1.81,14.46-5.42,3.94-3.61,5.91-7.5,5.91-11.66,0-2.41-.99-6.13-2.96-11.17-1.53-4.82-2.52-8.65-2.96-11.5l-3.61-36.47,54.54,42.39c3.72,2.85,6.9,9.64,9.53,20.37,2.41,8.76,7.23,14.57,14.46,17.42,1.09.44,2.24.76,3.45.99,1.2.22,2.35.33,3.45.33,7.89,0,15.11-3.61,21.69-10.84,6.57-7.23,9.86-15.11,9.86-23.66,0-2.63-.33-4.93-.99-6.9-1.1-3.72-3.89-7.06-8.38-10.02Z"/>
        <path class="cls-3" d="M863.48,602.7c1.31,0,2.41-.11,3.29-.33,4.82-.66,7.99-2.3,9.53-4.93,2.19-4.38,3.29-8.32,3.29-11.83,0-8.1-3.51-14.79-10.51-20.04-1.76-1.31-3.84-1.97-6.24-1.97s-5.7.66-9.86,1.97c-3.51,1.1-6.3,1.81-8.38,2.14-2.08.33-3.45.61-4.11.82-12.49-44.47-20.7-84.01-24.64-118.62,3.72-5.04,5.59-10.95,5.59-17.74,0-7.44-3.73-12.92-11.17-16.43-5.7-2.63-12.71-3.94-21.03-3.94-4.6,0-8.21.66-10.84,1.97-6.79,3.29-10.19,9.97-10.19,20.04,0,1.1.05,2.25.16,3.45.11,1.21.16,2.46.16,3.78-21.47,50.17-39.76,113.58-54.87,190.25-4.6,3.94-6.9,8.54-6.9,13.8,0,5.7,2.41,10.63,7.23,14.79,4.82,4.16,10.07,6.24,15.77,6.24,5.04,0,9.36-1.48,12.98-4.44,3.61-2.96,5.42-7.06,5.42-12.32,0-1.09-.06-2.08-.16-2.96-.11-.87-.28-1.86-.49-2.96,1.31-5.69,2.68-10.62,4.11-14.79,1.42-4.16,2.68-7.66,3.78-10.51,12.27-2.41,23.44-4.44,33.52-6.08,10.07-1.64,19.27-3.01,27.6-4.11,8.76,21.47,14.13,33.08,16.1,34.83.21,1.31.33,2.52.33,3.61v3.29c.21,3.51,1.2,6.24,2.96,8.21,4.16,5.91,11.94,8.87,23.33,8.87,12.27,0,18.4-4.93,18.4-14.79,0-5.91-2.63-10.95-7.89-15.12-9.2-13.36-14.46-24.64-15.77-33.84,1.97,0,3.78-.05,5.42-.16,1.64-.11,3.01-.16,4.11-.16ZM761.95,581.67c2.63-21.9,11.06-48.63,25.3-80.18,3.72,17.96,6.95,33.02,9.69,45.18,2.74,12.16,4.98,21.41,6.74,27.77l-41.73,7.23Z"/>
        <path class="cls-3" d="M1010.03,521.21c-4.6-1.75-9.2-3.23-13.8-4.44-4.6-1.2-9.31-2.57-14.13-4.11,22.78-23.44,34.17-45.56,34.17-66.37,0-7.01-1.43-13.25-4.27-18.73-4.6-8.98-13.91-13.47-27.93-13.47-12.49,0-28.37,3.61-47.64,10.84-7.45-8.1-16.32-12.16-26.62-12.16-4.6,0-7.89,1.1-9.86,3.29-3.07,3.51-4.6,7.78-4.6,12.82,0,6.79,2.19,13.59,6.57,20.37,0,14.9.66,42.39,1.97,82.47,1.09,24.54,2.08,44.25,2.96,59.15.87,14.9,1.86,25.19,2.96,30.89-4.6,3.73-6.9,7.56-6.9,11.5,0,3.73,1.64,7.67,4.93,11.83,9.64,12.92,21.14,20.04,34.5,21.36.44,0,.82.05,1.15.16.33.11.71.16,1.15.16,5.69,0,10.95-3.07,15.77-9.2,1.97-3.51,3.89-7.01,5.75-10.51,1.86-3.5,3.78-7.12,5.75-10.84,23.66-24.53,36.8-38.33,39.43-41.4,13.14-15.99,19.72-30.45,19.72-43.37,0-5.91-1.31-11.67-3.94-17.25-2.63-5.59-8.33-9.91-17.09-12.98ZM940.04,502.48c0-1.75-.06-4.22-.16-7.39-.11-3.17-.28-7.28-.49-12.32-.22-5.04-.39-9.04-.49-11.99-.11-2.96-.16-4.87-.16-5.75,13.58-8.98,22.89-13.47,27.93-13.47,3.72,0,5.59,1.64,5.59,4.93,0,4.82-3.4,11.94-10.19,21.36-7.01,9.86-14.35,18.07-22.02,24.64ZM944.64,606.97l-.99-46c10.73-8.76,21.79-13.14,33.19-13.14,7.44,0,11.17,2.74,11.17,8.21,0,11.39-14.46,28.37-43.37,50.93Z"/>
        <path class="cls-3" d="M1142.12,408.84c-1.1-.44-2.14-.66-3.12-.66h-2.79c-1.76,0-3.34.22-4.76.66-1.43.44-2.91.99-4.44,1.64-1.76,1.1-3.23,1.92-4.44,2.46-1.21.55-2.03.93-2.46,1.15l-36.14,11.5c-1.1-.66-2.3-1.31-3.61-1.97-1.31-.66-2.63-1.31-3.94-1.97-1.76-.87-3.34-1.42-4.77-1.64-1.43-.22-2.68-.33-3.78-.33h-1.31c-12.49,1.76-18.73,5.91-18.73,12.49,0,1.97.76,4.06,2.3,6.24-.66,24.97-.99,49.4-.99,73.28,0,19.94.22,39.32.66,58.16.44,18.84.99,37.46,1.64,55.86-2.41,7.89-3.61,11.94-3.61,12.16,0,1.53.33,2.74.99,3.61,8.76,13.36,18.4,21.69,28.91,24.97.66.22,1.64.33,2.96.33,2.19,0,4.93-1.31,8.21-3.94,1.75-1.76,3.34-3.07,4.77-3.94,1.42-.88,2.46-1.53,3.12-1.97l28.26-14.13c1.09.22,2.19.33,3.29.33h3.29c8.54,0,14.62-1.31,18.24-3.94,3.61-2.63,5.42-6.35,5.42-11.17,0-6.35-3.07-12.59-9.2-18.73-3.07-3.06-5.97-5.42-8.71-7.06-2.74-1.64-5.64-2.46-8.71-2.46h-1.64c-4.38,0-7.45.88-9.2,2.63-.44.66-.93,1.31-1.48,1.97-.55.66-1.04,1.31-1.48,1.97-5.7,2.85-12.82,5.26-21.36,7.23-1.1-5.47-1.64-17.09-1.64-34.83,3.29-1.75,6.35-3.23,9.2-4.44,2.84-1.2,5.37-2.35,7.56-3.45.66-.44,2.19-.66,4.6-.66h3.12c.99,0,2.14.11,3.45.33h3.94c3.94,0,7.12-.33,9.53-.99,5.04-1.31,8.76-5.14,11.17-11.5.66-1.53.99-2.96.99-4.27,0-5.26-3.94-10.73-11.83-16.43-7.23-5.69-14.02-8.54-20.37-8.54-5.7,0-9.86,2.08-12.49,6.24-2.41.44-4.38.88-5.91,1.31-1.53.44-2.52.88-2.96,1.31-.66-13.36-.99-26.07-.99-38.12s.33-23.33.99-33.84c1.75-1.75,4.49-3.45,8.21-5.09,3.72-1.64,8.43-3.67,14.13-6.08,2.41-.87,4.87-1.75,7.39-2.63,2.52-.87,5.31-1.75,8.38-2.63,3.94.66,7.44.99,10.52.99,7.23,0,13.14-1.97,17.74-5.91,2.19-1.53,3.29-4.16,3.29-7.89,0-5.04-2.19-10.73-6.57-17.09-4.38-6.35-8.66-9.86-12.81-10.52Z"/>
        <path class="cls-3" d="M1469.38,534.36c-2.63,0-5.59.77-8.87,2.3-3.29,1.53-6.46,2.96-9.53,4.27-5.7.44-11.34.88-16.92,1.31-5.59.44-11.23.88-16.92,1.31-8.98.66-14.9,2.3-17.74,4.93-2.85,2.63-4.27,5.7-4.27,9.2,0,5.48,3.29,11.17,9.86,17.09,5.26,4.82,10.73,8.54,16.43,11.17-3.29,23.66-7.56,35.49-12.82,35.49-3.29,0-6.9-7.99-10.84-23.99-3.94-15.77-5.91-30.12-5.91-43.04,0-17.74,2.63-38.33,7.89-61.77,5.26-22.12,9.42-33.19,12.49-33.19,3.5,0,6.79,11.72,9.86,35.16-.88,4.38-1.53,7.56-1.97,9.53-.44,1.97-.66,2.74-.66,2.3,0,2.19.66,4.06,1.97,5.59,2.19,3.51,6.13,6.46,11.83,8.87,6.57,2.63,12.49,3.94,17.74,3.94,4.82,0,8.81-1.59,11.99-4.76,3.17-3.17,4.76-7.28,4.76-12.32s-1.53-9.42-4.6-13.14c-3.07-22.12-8-40.09-14.79-53.89-9.64-18.62-21.47-27.93-35.49-27.93h-.66c-19.5,0-35.16,16.21-46.99,48.63-9.64,26.94-14.57,58.16-14.79,93.65,0,21.25,4.16,41.19,12.49,59.8,7.01,15.11,16.32,27.93,27.93,38.44,10.29,8.98,19.39,13.47,27.27,13.47,1.97,0,3.61-.33,4.93-.99,8.98-3.73,17.19-14.34,24.64-31.87,7.23-17.3,12.16-36.36,14.79-57.17h8.05c2.74,0,5.53-.11,8.38-.33,6.57-.21,11.39-2.08,14.46-5.59,2.19-3.29,3.29-6.68,3.29-10.19,0-5.69-3.07-11.61-9.2-17.74-6.14-5.69-12.16-8.54-18.07-8.54Z"/>
        <path class="cls-3" d="M1645.01,537.81c-.11-1.42-.16-3.01-.16-4.76-3.51-65.93-20.7-105.26-51.59-117.96-1.76-.87-4.16-1.31-7.23-1.31-2.85,0-7.56.66-14.13,1.97-3.07.44-5.7.77-7.89.99-2.19.22-3.83.33-4.93.33s-2.41-.16-3.94-.49c-1.53-.33-3.18-.71-4.93-1.15-1.76-.44-3.4-.82-4.93-1.15-1.53-.33-2.74-.49-3.61-.49-2.19,0-4.39.77-6.57,2.3-8.11,5.26-16.32,20.04-24.64,44.36-3.73,11.17-6.52,22.07-8.38,32.69-1.86,10.63-2.79,21.09-2.79,31.38,0,1.53.05,2.96.16,4.27.11,1.31.16,2.74.16,4.27,4.6,82.8,27.49,126.83,68.67,132.09,2.41.22,4.76.44,7.06.66,2.3.21,4.65.54,7.06.99h2.63c3.5,0,7.44-.55,11.83-1.64,12.04-3.94,23.44-20.15,34.17-48.63,9.42-25.85,14.13-50.49,14.13-73.93,0-1.75-.06-3.34-.16-4.77ZM1592.27,601.72c-7.45,20.59-14.46,30.89-21.03,30.89s-13.47-11.39-20.7-34.17c-7.23-23-10.84-44.8-10.84-65.39,0-8.1.66-16.76,1.97-25.96,1.31-9.2,3.5-19.06,6.57-29.57,5.26-19.27,9.53-29.68,12.81-31.22,3.72-1.53,7.01-2.3,9.86-2.3,11.17,0,19.49,10.73,24.97,32.2,1.75,6.36,3.29,14.24,4.6,23.66,1.31,9.42,2.52,20.49,3.62,33.19,0,1.31.05,2.63.16,3.94.11,1.31.16,2.63.16,3.94,0,18.62-4.06,38.89-12.16,60.79Z"/>
        <path class="cls-2" d="M1646.41,271.7c-3.1.1-6.17,1.52-8.64-1.23,0-.17.84-.65,1.71-1.28-.61-.37-1.09-.88-1.42-1.49-1.09,1.07-2.18,2.07-2.78,1.53,1.76-2.98-1.36-4.42-4.12-4.95-1.18-1.19.08-1.49,1.22-1.64,1.15-.15,2.3-.06,3.44.06-.78-.76-1.2-1.8-1.28-2.89-2.37-1.73-3.72-5.32-7.45-4.63-.24-1.47.48-3.36-.86-4.51-1.92-1.64,1.22-2.56-2.6-5.17-3.47-2.37-2.63-5.35-7.66-3.46v-2.48c-5.83,2.69-5.88-.96-9.14-2.82-4.59-2.61-13.06-.76-18.48-1.31-4.33-.44-11.85-5.12-13.59-.38l-1.12.31c-2.49-.68-4.02-3.79-6.27-4.51-2.64-.84-10.05.42-7.06-4.5.46-.76,1.96-1.28,3.46-1.94-.9-.52-1.52-1.34-1.83-2.28l-.38.11.14-1.49c-.01-.42.03-.84.12-1.25l.44-4.58c-2.7-.94-5.41-1.1-8.13-2.17-2.81-1.11-7.27-4.89-9.69-5.24-2.46-.36-2.73,2.4-5.52,2.41-4.2,0-10.46-1.58-14.85-1.73-5.56-.19-11.25-.24-16.57,1.5l-1.7-3.17c-4.23-1.2-14.27,1.8-17.12.78-1.75-.63-1.15-5.68-6.29-4.01v-3.31c-1.65,1.15-12.66-2.86-13.09-3.4-.51-.64.5-2.48-.58-3.29-.94-.71-20.98-7.04-22.41-7.19-2.14-.21-3.62,2.13-6.24,2.08-3.3-.05-10.61-3.97-11.63-3.91-.27.02-1.52,2.88-3.54,3.98-7.71,4.19-17.85,5.15-26.19,5.3-2.35.04-5.18,1.27-7.83.66-.68-4.26,5.13-4.67,5.76-8.23-3.74-.81-4.87,1.39-7.41,3.29v-3.3c-2.75.74-6.57-.78-4.79-3.98.34-.62,2.94-.52,2.31-2.6-3.16-.05-6.97,2.65-6.59-2.47l4.1.41-6.33-5.23h-1.8s-2.15,2.34-2.15,2.34c-2.54-2.55-4.6-5.44-8.67-4.94l1.64-3.28-4.94,1.64v-4.11c-8.59,4.29-42-2.61-47.06,3.68-.68.85-.48,2.4-1.29,2.99-3.66,2.66-16.58,1.62-21.21.68-2.22,6.8-6.97,5.07-12.54,6.61-1.79,2.49,2.9,9.55.92,12.45-.27.4-5.2,2.43-5.82,2.42-1.5-.03-2.03-1.99-3.69-1.63v2.48c-4.08-1.55-6.26,2.6-9.63,4-4.62-4.54-5.56.16-9.75.16-3.15,0-4.72-3.06-8.24-3.38-4.49-.41-8.72,2.39-13.11,2.42-8.56.06-19.43-4.74-28.02-3.95-4.68.43-11.08,3.48-16,4.62-5.14,1.19-16.11,1.65-19.6,4.34-.75.58-.91,2.32-1.76,2.51-1.19.27-3.64-.46-4.27.09-.24.21-.21,1.92-.87,2.79-3.34,4.39-10.11.1-14.37,1.33l-1.06,1.1c1.88,8.23-10.56,1.12-13.94,1.31-2.61.15-2.29,3.57-4.89,4.08-3.94.76-11.74-1.49-17.25-.77-7.32.97-15.99,8.46-21.59,8.99-2.19.21-4.57-1.03-7.32-.84-3.36.22-6.37,2.56-9.91,2.57-5.41,0-11.05.02-16.49,0-3.75,0-7.9-2.24-11.46,0-1.65,1.04-1.9,3.65-4.58,4.49-7,2.2-17.7-3.24-22,4.45l-5.24-1.61-1.39,3.33c-4.13,1.02-7.77-2.27-9.41-2.13-2.39.2-2.2,3.99-3.44,5.18-1.88,1.81-7.31.67-10.01,1.12-8.14,1.37-18.38,5.49-26.6,5.62-3.34.05-10.53-3.59-11.71.66-.65,1.78,1.25,5.53,2.92,5.93,1.74.41,2.64-1.62,3.8-1.43.58.09,1.3,1.1,2.06,1.25,7.07,1.41,18.11,1.14,20.4,9.2.59.83,1.19,1.71,1.86,2.62,3.45,4.63,10.14,4.35,15.35,4.01,2.06-.14,1.54.42,2.5.6,6.52,1.19,9.86-.99,15.06-1.1,4.11-.09,6.02,1.91,9.73,2.22,8.69.74,17.32-1.23,25.96-1.63-2.06,8.15-1.18,15.08,4.93,21.03,3.22,3.13,8.76,5.51,11.56,9.05,9.97,12.59,12.86,26.26,26.82,38.3,13.69,11.81,45.36,22.99,63.06,30.09,17.58,7.05,53.42,16.21,64.3,32.15,1.76,2.58,1.15,4.06,2.11,6.13,1.89,4.06,24.53,26.22,29.21,30.14,17.57,14.75,40.45,19.36,47.44,44.05,6.17,21.78,2.49,38.07-4.13,58.56-4.12,12.77,2.2,27.24,1.63,40.36-11.58-18.54-22.54-37.74-32.71-57.13-7.94-15.15-32.17-60.97-32.04-75.92.05-5.28,3.08-8.81-.42-14.43-7.37-11.84-31.23-15.8-43.61-12.34-13.15,3.67-7.65,14.44-7.07,24.27,3.6,61.11,4.74,121.87,9.02,182.88-.34,5.28-6.29,7.18-8.11,11.68-8.79,21.8,39.8,43.63,50.81,20.3,5.22-11.06-3.2-16.89-4.73-26.96-2.16-14.24-2.53-33.79-3.32-48.6-.61-11.45-1.33-23.25-1.65-34.61-.3-10.84.29-21.75.04-32.59,3.85,4.8,5.86,11.75,8.63,17.33,8.95,18.02,19.24,35.64,29.45,52.97,5.6,9.5,18.38,25.88,20.25,35.8.77,4.11.45,9.27,1.4,13.43,6.35,27.71,50.67,42.44,60.69,11.13,5.4-16.89-5.85-17.9-7.37-30.63-.72-21.69,2.51-45.14.76-66.69-.53-6.53-3.65-13.43-4.18-19.72-1.65-19.57,2.61-58.89,10.6-76.81,6.18-13.87,21.44-26.03,31.45-37.79,5.44-6.4,11.3-13.98,16.36-20.73,13.56-18.06,12.8-23.54,35.19-34.05,15.18-7.13,35.54-15.64,51.31-21.23,18.04-6.4,45.76-9.6,59.57-23.69,3.71-3.79,6.03-9.93,10.33-13.57,8.43-7.14,19.8-4.14,27.58-13.64,1.94-2.37,4.46-8.49,7.2-9.29,3.96-1.16,9.93.91,13.73.78.95-.03,1.65-.2,2.62.17.58.22,1.26.64,2.27.61.25,0,.46-.04.59-.07,14.57-2.14,17.45-.82,32.09-1.66,2.43-.14,15.43-1.41,16.08-2.88.14-.32.3-2.07-.41-2.06ZM1501.53,284.83c3.39-5.65,9.3-7.69,11.05-8.29,2.44-.84,4.65-1.14,6.34-1.23,8.03,1.86,11.29.64,12.68-1.06.99-1.2,1.34-3,3.17-3.78,1.44-.61,3.59-.51,4.34.49,1.84,2.46-4.76,10.57-8.77,14.76-4.01,4.2-14.08,14.74-24.72,13.22-1.01-.15-5.96-.86-6.96-3.76-.37-1.09-.05-2.27.6-4.58.51-1.81,1.06-3.73,2.28-5.77ZM1492.27,291.13c.22,1.94-3.27,2.52-13.27,9.74-7.19,5.19-6.58,6.4-9.59,6.9-8.52,1.42-12.53-1.83-17.35,1.56-3.4,2.39-1.92,5.18-6,9.51-4.29,4.56-11.18,7.06-13.02,5.22-1.88-1.89,1.53-8.36,3.88-11.75.81-1.17,3.01-4.18,10.31-9.4,9.34-6.68,14.54-8.81,19.59-11.74,5.78-3.36,5.17-3.12,6.06-3.48,8.08-3.24,19,.09,19.38,3.43ZM1451.51,276.64c6.84-1.86,15.45-.73,16.3,2.33,1.24,4.46-14.29,11.91-15.26,12.37-1.16.55-16.62,7.77-19,4.28-2.17-3.18,6.16-15.78,17.97-18.99ZM1415.51,295.53c-10.12,11.82-24.88,13.02-28.58,13.22-1.64-6.16,4.62-10.57,5-16.08.44-6.39-3.29-9.06-1.32-17.74.34-1.49,1.8-8.83,7-13.22,6.72-5.67,18.85-5.72,24.45-.03,7.79,7.89,1.11,24.9-6.55,33.85ZM1352.03,308.08c5.15-7.76,7.2-7.03,12.26-14.54,10.45-15.54,9.28-30.04,13.06-30.11,3.06-.06,5.42,9.72,5.66,10.69,1.85,7.68.42,14.11-1.37,21.71-.95,4.05-2.36,9.78-5.19,15.44-8.57,17.13-28.43,29.77-33.18,26.04-4.05-3.17,1.96-18.96,8.77-29.24ZM1374.41,343.01c-4.03,4.7-19.22,9.34-24.75,13.58,1.85-9.35,9.45-17.37,17.03-22.94,1.4-1.02,13.72-8.98,14.29-8.38.65.69-5.32,16.27-6.57,17.73ZM1286.16,279.94c.05-1.38.49-1.95.87-2.22,1.85-1.33,6.23,1.85,9.41,4.92.84.81,1.58,1.91,2.14,3.44,2.76,7.58,1.91,16.11-.91,23.5-1.62,1.15-12.19-7.17-12.8-8.99-1.44-4.28,2.75-7.61,2.99-12.02.17-3.29-1.46-5.53-1.69-8.63ZM1240.62,322.67c.48-.32,1.05-.54,1.72-.63,4.21-6.9,9.08-2.81,14.58.74,6.29,4.06,13.42,10.86,18.07,16.55,3.17,3.87.38,14.23-.77,18.93-1.05,1.37-.88.43-1.68.02-2.8-1.42-8.19-5.8-11.05-7.93-9.91-7.38-22.39-16.41-26.45-28.36l5.56.69ZM1275.98,331.78c2.77-.48,7.87-.89,12.6,1.79,11.95,6.77,12.06,27.88,7.47,30.02-1.31.61-3.67,0-8.28-4.62-.27-3.45-1.06-8.43-3.37-13.97-2.56-6.15-5.96-10.52-8.41-13.21ZM1217.8,266.4c.6-5.57,6.04-2.95,9.87-4.13,2.64-.82,2.49-2.6,4.1-3.37,5.48-2.63,15.94,10.83,30.11,22.55,6.78,5.61,12.78,9.47,16.45,11.69,2.02,3.31-1.75,5.6-2.08,7.89-1.21,8.37,18.88,8.16,18.85,16.42-.02,8.13-13.53,6.77-19.16,6.09-8.75-1.07-27.96-13.32-31.19-21.56-.76-1.93-.7-4.06-1.42-6-3.26-8.89-19.15-10.41-20.47-18.28-.19-1.13.76-2.52.27-3.51-1.33-2.73-6.18-.11-5.34-7.77ZM1207.44,270.91c2.76-3.88,1.56-8.27,3.92-9.51.51-.27,1.13-.41,1.87-.38,0,0,1.1.06,2.08.77,1.94,1.41-1.78,8.27-.9,13.94,1.04,6.67,8.43,11.4,16.22,16.37,6.32,4.04,10.51,5.24,10.4,7.8-.09,2.15-3.17,4.26-5.95,4.36-2.88.1-4.69-1.97-7.56-4.29-6.92-5.58-8.67-3.43-14.19-7.95-6.39-5.23-11.21-13.99-8.8-18.29.79-1.41,1.53-.86,2.93-2.83ZM1188.89,289.01c2.27.11,3.21,2.37,5.18,3.47,3.92,2.18,8.29,2.26,11.75,5.56,3.47,3.31,3.8,7.54,5.98,11.33,5.82,10.12,20.43,13.11,24.08,24.96-3.96,3.57-27.91-18.92-31.76-22.22-7.28-6.23-18.84-11.1-15.22-23.1ZM1153.99,278.46c.85-1.33,4.92-.1,8.49,1.01,9.53,2.95,16.7,5.18,19.26,11.7,1.28,3.24,1.79,8.51-.55,10.06-5.02,3.34-20.03-12.57-21.99-14.65-2.47-2.62-6.18-6.6-5.21-8.11ZM1119.62,287.36c6.68.99,12.49-1.77,18.96-1.64-2.68,8.04,1.33,16.48.82,24.29-.08,1.22-1.15,7.71-3.28,6.2-6.27-9.19-17.68-15.8-16.51-28.84ZM1116.35,342.14c-15.32-6.51-26.17-12.7-37.15-25.5-3.86-4.5-17.86-23.74-8.81-27.87,5.82-.28,10.37,3.05,16.69,2.75,6.2-.29,12.08-4.7,17.41-4.94,2.7-.12,5.63,1.4,8.55.78.46,6.41.7,16.62,5.31,21.47,1.35,1.41,4.31,2.34,4.45,2.56.36.58.89,10.41,1.82,13.43,4.38,14.12,15.1,20.92,25.52,30.12-11.21-4.21-22.77-8.11-33.78-12.79ZM1176.51,358.24c-1.19,1.17-13.2-3.84-15.4-4.8-11.36-4.95-21.19-11.21-25.82-23.22,5.78,1.31,12.13-2.71,17.55-1.48,1.33.3,19.79,12.59,20.74,13.88,3.23,4.4,3.05,10.43,2.93,15.61ZM1277.57,429.99c-1.68,2.33-10.92-.67-13.12-1.83-6.43-3.4-10.44-10.92-15.36-15.96-5.33-5.46-14.51-12.05-17.94-18.33-1.39-2.54-2.15-7.22-3.97-9.22-2.39-2.61-10.5-4.56-15.23-9.5-3.69-3.85-6.83-11.24-9.83-14.07-4.53-4.28-15.35-4.51-18.2-8.18-3.47-4.49.54-12.37-4.89-17.37-2.37-2.19-5.96-2.36-8.7-4.49-3.96-3.08-7.97-12.15-13.94-11.53-2.23.23-3.85,2.47-5.6,2.19-.79-.13-1.27-.69-1.51-.92-6.28-6.16-6.15-24.15-6.15-24.15.02-2.95.19-6.96.81-11.72,1.61,1.25,4,3.15,6.79,5.6,4.62,4.04,5.49,5.32,8.61,7.99,3.09,2.65,7.2,6.16,12.28,8.17,6.32,2.49,9.11.66,14.97,1.52,10.33,1.52,13.46,8.97,27.89,20.75,4.36,3.56,11.05,8.57,20.11,13.67h.02c3.38,1.61,8.18,4.43,12.38,9.31,6.24,7.25,5.59,12.57,9.67,23.86,5.7,15.74,11.72,15.91,18.33,36.07.94,2.88,3.85,16.37,2.57,18.15ZM1276.46,397.84c-2.84-6.75-5.47-11.71-7.39-15.05-.54-.94-1.18-2.03-2.59-4.49-3.48-6.08-5.23-9.15-5.91-10.95-.89-2.36-1.81-5.92-1.6-10.75,1.13.52,2.67,1.31,4.4,2.43,1.72,1.1,3.78,2.43,5.48,4.42,1.78,2.09,2.45,4.07,3.18,6.09,3.68,10.1,4.89,9.38,5.78,13.82.57,2.86,1.01,7.84-1.35,14.48ZM1316.96,436.92c1.17,10.03,1.15,22.71-2.24,23.6-3.14.83-5.23-9.5-16.13-14.64-6.32-2.98-10.84-1.97-13.12-5.85-1.77-3.03.17-5.05.68-11.33,1.14-13.78-7.03-18.49-3.53-28.28,1.15-3.2,2.67-4.5,2.82-8.17.15-3.49-1.11-5.39-2.24-10.46-.8-3.6-1.06-6.65-1.15-8.74,1.72.61,3.38,1.7,4.91,2.97,0,0,2.22,1.72,4.13,4.05,22.42,27.32,25.86,56.83,25.86,56.83ZM1326.56,415.51c-.29,1.15.01,2.57-1.63,2.89-4.44-14.88-12.19-28.88-14.85-44.09-.39-.47-.66-1.04-.82-1.63-.57-.57-.94-1.28-1.13-2.06-.11-.24-.2-.5-.27-.76-.9-.6-1.47-1.53-1.72-2.55-.19-.48-.3-1-.33-1.52-1.37-6.41,3.29-14.8,2.61-20.24-.57-4.55-7.61-7.91-5.76-13.67,1.46-.23,1.81-.04,2.85.86,7.25,6.27,18.4,30.8,20.65,40.34,2.73,11.6,3.27,30.9.41,42.44ZM1328.47,353.47c-2.05-3.4,1.67-6.25,1.57-11.58-.18-9.75-12.82-11.58-15.68-24.62-.56-2.56-.57-5.18-.1-10.4.25-2.74,3.46-19.05,5.44-19.54,3.28-.81,11.87,3.31,13.25,6.43.93,2.12.45,4.9,2.2,6.86,2.83,3.17,8.05-.63,5.87,7.37-1.15,4.22-4.31,6.68-5.02,7.34-8.52,7.87,6.78,37.21.6,41.26-2.15,1.41-6.54-.49-8.12-3.12ZM1339.76,420.04c1.01-10.77.16-21.78.83-32.54.43-6.97,1.59-20.31,8.03-24.11l19.99-7.62c-3,7.41-6.99,14.47-9.71,22.01-4.67,12.96-6.83,26.03-14.68,38.07-.49.75-3.32,5.48-4.46,4.18ZM1374.03,392.9c-6.14,8.52-9.85,19.15-18.6,25.49,1.25-4.33,3.7-8.29,5.17-12.54,5.61-16.15,8.84-44.28,22.46-55.02,8.13-6.41,20.59-7.4,30.07-11.55-5.31,22.83-26.16,35.66-39.1,53.62ZM1388.06,335.69c-2.39-2.86,1.6-11.68,7.49-16.84,6.47-5.67,10.84-3.07,18.71-9.16,7.05-5.45,8.64-11.47,11.27-10.75,2.39.65,3.44,6.25,2.76,10.75-1.3,8.63-9.08,13.85-15.16,17.81-7.45,4.85-21.87,12.02-25.08,8.19ZM1539.42,289.95c1.36.9-.33,8.3-5.15,13.29-3.02,3.12-5.23,3.19-9.77,7.66-2.59,2.55-3.98,4.82-4.55,5.34-7.08,6.54-32.7,10.02-43.29,13.59-17.61,5.95-33.26,17.53-51.97,20.15-1.02-.95,5.31-6.59,6.32-7.28,5.77-3.92,21.76-6.63,23.82-13.27,1.21-3.91-1.42-6.84,3.09-9.28,2.08-1.12,14.53-4.89,16.67-4.86,5.06.08,4.19,3.57,6.39,4.49,6.7,2.8,6.21-8.93,10.56-11.36,4.39-2.45,7.2.61,15.91-.58,10.92-1.49,20.81-9.61,26.09-13.94,3.05-2.5,5.04-4.53,5.9-3.97Z"/>
      </g>
      <path class="cls-3" d="M400.17,825.34l-.56-.11c-.66-.13-6.58-1.34-9.97-2.54-14.36-5.07-19.91-21.08-24.38-33.94-1.26-3.63-2.45-7.05-3.7-9.89-4.46-10.08-9.92-21.25-15.7-33.08-25.43-52.05-57.07-116.83-43.12-167.38,2.06-7.47,4.56-14.02,6.77-19.79,6.23-16.3,10.73-28.08,1.88-49-3.37-7.97-9.09-15.63-15.16-23.75-11.17-14.95-22.71-30.4-21.01-50.05.35-4.05,1.7-8.41,3-12.64,1.99-6.47,4.25-13.81,1.87-17.57-2.02-3.19-11.19-6.04-17.25-7.93-4.03-1.25-7.83-2.43-10.8-3.85-3.28-1.55-6.31-3.57-9.24-5.53-5.13-3.42-9.99-6.65-15.36-6.89h-.23c-4.6,0-15.32,4.48-23.16,7.75-5.49,2.29-10.67,4.46-14.64,5.63-18.4,5.41-35.79,8.16-51.69,8.16-49.48,0-88.93-25.88-124.18-81.45-6.63-10.46-10.86-21.02-13.3-33.23l-.14-.72.04-.73c.13-2.3.05-4.75-.04-7.34-.1-3.07-.21-6.25.05-9.41.39-4.9,1.37-9.95,2.31-14.83.97-5.03,1.98-10.24,2.28-15.08.42-6.68.39-13.22.36-19.55-.09-16.86-.17-32.78,7.64-50.54,7.74-17.6,20.49-28.99,32.83-40.02,7.7-6.88,14.98-13.38,21.24-21.36,5.06-6.44,9.28-13.56,13.75-21.09,5.18-8.73,10.54-17.76,17.35-25.69C133.67,20.32,196.6,2.66,243.56,0h.16s32.4,0,32.4,0l.83.26c2.42.75,5.41.94,8.58,1.14,2.47.16,5.02.32,7.55.76,19.75,3.53,38.4,16.84,35.57,38.64-.35,2.72-1.27,5.02-2.08,7.05-1.3,3.25-1.54,4.22-.93,5.39,5.01,9.6,24.88,20.04,38,22.28,3.7.63,7.07.94,10.3.94,8.54,0,14.5-2.15,21.41-4.64,7.57-2.73,16.16-5.82,28.74-5.82,2.89,0,5.93.16,9.05.49,9.05.94,14.73,2.77,21.32,4.88,6.74,2.17,14.39,4.63,28.44,7.24,4.35.81,8.66,1.85,12.83,2.87,6.43,1.56,12.5,3.03,18.7,3.7,3.36.36,6.58,1.13,9.64,2.31v.02c1.63.53,3.53,1.5,5.05,2.36,19.58,11.04,44.95,78.2,47.78,85.83,16.78,45.2,24.6,55.27,43.51,79.61,6.13,7.9,13.77,17.72,23.16,30.64.48.66,1.11,1.56,1.85,2.61,7.45,10.55,12.35,16.57,14.6,17.91.13.01.28.02.43.02,4.43,0,12.59-4.21,19.14-7.59,5.08-2.62,9.87-5.09,13.97-6.37,5.26-1.63,10.42-2.45,15.36-2.45,20.08,0,35.25,13.25,40.59,35.44l.16.66v11.42l-.12.58c-3.98,19.08-14.57,33.76-23.35,44.42-5.22,6.34-10.07,11.62-14.03,15.26-6.57,6.05-10.09,8.48-13.95,9.66-2.34.71-4.8,1.07-7.31,1.07-4.11,0-8.33-.94-12.52-2.79l-.57-.25-.5-.37c-5.26-3.85-8.45-8.67-9.22-13.94-1.09-7.46,2.92-13.22,5.08-16.32l.07-.1c5.43-7.83,12.49-15.28,18.72-21.84,7.21-7.6,15.38-16.21,15.82-20.79.07-.71.05-1.19.01-1.48-.13-.01-.29-.02-.48-.02-.28,0-.6.02-.94.06-3.32.36-9.19,3.23-14.38,5.76-4.31,2.1-8.39,4.09-12.01,5.26-6.85,2.21-12.94,3.28-18.63,3.28-22.5,0-33.08-16.42-45.33-35.44l-1.81-2.8c-33.99-52.57-62.38-112.34-86.79-182.71-1.71-4.03-4.15-7.52-7.24-10.39-2.8-2.6-5.88-4.44-10.62-6.35-11.23-4.53-21.69-5.28-24.62-5.41-19.9-.83-31.53-4.08-40.87-6.7-6.24-1.74-11.16-3.12-16.68-3.12-3.29,0-6.78.49-10.69,1.49-4.24,1.09-7.74,2.37-11.45,3.73-6.96,2.55-14.15,5.19-26.31,6.58-2.64.3-5.27.45-8.02.45-3.78,0-7.69-.28-11.93-.85-21.18-2.88-63.13-23.18-64.5-50.14-.18-3.42,1-7.41,2.14-11.27.52-1.75,1.27-4.29,1.43-5.56-1.96-1.9-10.65-4.36-19.9-4.91-4.79-.28-9.72-.42-14.64-.42-51.91,0-117.44,16.07-145.67,61.19-3.44,5.5-6.37,11.17-9.47,17.18-4.18,8.09-8.5,16.45-14.14,24.31-5.54,7.71-12.33,14.66-18.9,21.38-12.88,13.18-25.05,25.63-27.81,42.9-1.13,7.06-1.01,14.25-.88,21.86.08,4.67.16,9.5-.08,14.32-.4,8.31-1.68,15.64-2.92,22.72-2.8,16.01-5.02,28.66,4.52,44.6,28.68,47.95,58.74,69.34,97.46,69.35,9.73,0,21.18-2.35,33.29-4.84,12.74-2.62,25.91-5.32,37.86-5.32,7.53,0,13.87,1.06,19.37,3.24,4.83,1.91,9.09,4.65,13.2,7.29,3.62,2.33,7.05,4.53,10.55,5.97,3.5,1.44,7.47,2.45,11.67,3.51,13.11,3.33,29.42,7.48,31.48,27.98.82,8.17-.12,14.38-.87,19.38-1.36,9.01-2.18,14.45,8.31,26.88,4.11,4.87,8.2,9.12,12.17,13.24,11.73,12.19,22.81,23.71,28.35,45.67,6.03,23.93,1.57,38.5-3.15,53.93-2.11,6.91-4.3,14.05-5.83,22.68-4.33,24.4,9.09,61.5,19.87,91.31,3.18,8.8,6.19,17.12,8.53,24.5,7.83,24.71,13.98,46.49,18.81,66.59.88,3.69,1.4,7.32,1.91,10.84,1.82,12.73,3.17,18.93,13.89,20.81,1.27.22,2.66.33,4.12.33,29.3,0,83.15-42.51,101.44-69.2,13.16-19.2,18.36-39.62,18.41-39.83l2.29-8.35.16-.38c2.06-4.73,10.01-20.14,25.67-20.14h.5c2.58,0,10.42,0,17.21,5.94,6.14,5.38,9.22,13.76,8.03,21.88-.29,1.96-1.16,5.34-5.42,11.9-4.76,7.33-16.25,19.02-17.61,20.4l-9.68,10.9c-3.62,4.33-13.04,15.58-13.98,16.76-44.03,53.42-86.96,65.38-89.66,66.09-7.42,2.1-15.19,3.55-23.11,4.31l-.27.03h-22.99Z"/>
      <g>
        <path class="cls-1" d="M763.8,788.07l-8.99-3.82c-13.79-5.7-21.36-12.43-21.36-24.52,0-13.52,10.95-21.36,25.02-21.36,5.76,0,10.66,1.11,15.57,3.47l4.19,24.16h15.91l1.48-28.23c-9.6-6.69-22.36-10.84-36.82-10.84-29.14,0-49.41,14.93-49.41,39.5,0,22.23,14.4,34.5,37.39,44.32l8.4,3.59c15.34,6.34,22.11,11.86,22.11,24.14,0,13.77-10.56,22.65-27.87,22.65-8.43,0-14.65-1.48-21.2-4.5l-4.15-25.22h-16.06l-1.25,30.17c10.84,6.75,27.32,11,42.99,11,32.23,0,51.99-16.27,51.99-40.92,0-20.41-10.81-32.22-37.93-43.56Z"/>
        <path class="cls-1" d="M905.15,858.79c-3.89,0-6.2-2.65-6.2-9.37v-45.6c0-27.17-10.52-37.76-34.73-37.76-25.57,0-41.72,10.82-44.23,27.46,1.03,6.07,5.22,9.43,11.78,9.43s11.84-4.49,13.03-14.54l2.44-11.52c3.32-.56,6.16-.74,8.76-.74,13.56,0,18.26,5.24,18.26,24.72v5.95c-7.21,1.86-14.55,3.98-19.89,5.71-30.14,9.78-37.41,19.72-37.41,33.03,0,17.27,11.98,26.42,27.69,26.42,13.26,0,20.06-5.56,30.39-16.05,2.39,9.79,9.6,15.65,20.68,15.65,9.94,0,16.5-3.56,21.52-13.26l-4.87-4.14c-2.37,3.1-4.37,4.6-7.23,4.6ZM856.1,856.72c-8.31,0-14.7-4.62-14.7-15.38,0-7.98,4.16-15.46,18.21-21.08,3.54-1.52,8.91-3.32,14.65-4.99v32.92c-9.08,6.5-12.75,8.53-18.16,8.53Z"/>
        <path class="cls-1" d="M970.05,730.77c1.36-2.36,3.24-4.62,5.43-6.49l3.8,3.7c5.4,7.21,10.69,10.45,16.83,10.45,8.44,0,13.5-4.97,13.76-11.57-2.32-9.63-11.72-13.07-22.46-13.07s-22.05,3.31-32.03,13.28c-8.57,8.58-13.74,20.05-16.02,41.76l-15.82,2.05v10.75h15.48v43.53c0,10.88-.12,21.76-.35,32.64l-14.23,2.69v8.54h57.63v-8.54l-17.56-3.24c-.22-10.7-.34-21.4-.34-32.09v-43.53h25.31v-12.63h-25.75c-.51-18.63,1.66-30.37,6.33-38.24Z"/>
        <path class="cls-1" d="M1088.58,858.79c-3.89,0-6.2-2.65-6.2-9.37v-45.6c0-27.17-10.52-37.76-34.73-37.76-25.57,0-41.72,10.82-44.23,27.46,1.03,6.07,5.22,9.43,11.78,9.43s11.84-4.49,13.03-14.54l2.44-11.52c3.32-.56,6.16-.74,8.76-.74,13.56,0,18.26,5.24,18.26,24.72v5.95c-7.21,1.86-14.55,3.98-19.89,5.71-30.14,9.78-37.41,19.72-37.41,33.03,0,17.27,11.98,26.42,27.69,26.42,13.26,0,20.06-5.56,30.39-16.05,2.39,9.79,9.6,15.65,20.68,15.65,9.94,0,16.5-3.56,21.52-13.26l-4.87-4.14c-2.37,3.1-4.37,4.6-7.23,4.6ZM1039.53,856.72c-8.31,0-14.7-4.62-14.7-15.38,0-7.98,4.16-15.46,18.21-21.08,3.54-1.52,8.91-3.32,14.65-4.99v32.92c-9.08,6.5-12.75,8.53-18.16,8.53Z"/>
        <path class="cls-1" d="M1175.62,766.06c-10.99,0-22.96,9.61-29.14,27.5l-2.15-25.34-3.36-2.17-34.93,13.23v7.77l14.72,1.88c.42,8.36.63,13.68.63,25.18v11.05c0,9.08-.1,22.36-.31,32.73l-13.37,2.6v8.54h56.12v-8.54l-17.01-3.31c-.2-10.26-.29-23.15-.29-32.02v-14.76c3.1-11.18,8.56-20.16,15.84-26.31l1.9,2.08c4.37,4.9,8.8,7.39,14.38,7.39,8.36,0,13.27-5.82,13.5-16.17-2.12-7.32-8.93-11.32-16.52-11.32Z"/>
        <path class="cls-1" d="M1225.87,746.6c8.8,0,15.78-6.2,15.78-14.93s-6.98-14.93-15.78-14.93-15.78,6.07-15.78,14.93,6.98,14.93,15.78,14.93Z"/>
        <path class="cls-1" d="M1238.6,825.16v-27.66l.63-29.28-3.36-2.17-37.76,13.23v7.77l14.99,1.88c.42,8.36.63,14.83.63,26.33v9.9c0,9.05-.1,22.27-.31,32.63l-13.67,2.7v8.54h51.81v-8.54l-12.64-2.57c-.21-10.38-.31-23.68-.31-32.77Z"/>
        <path class="cls-1" d="M1314.9,808.29l-8.26-2.61c-14.28-4.76-18.43-8.54-18.43-16.11,0-8.16,6.46-13.04,17.57-13.04,5,0,9.06.84,13.02,2.54l3.8,17.49h13.67l1.14-22.02c-9.9-5.43-19.29-8.49-31.11-8.49-25.72,0-39.85,14.46-39.85,31.65,0,14.97,9.57,24.43,25.28,29.61l10.45,3.4c13.47,4.42,18.51,8.87,18.51,16.62,0,9-7.06,14.17-21.08,14.17-6.1,0-11.31-1.09-16.3-3.18l-3.81-19.36h-13.99l.15,24.23c10.62,5.84,20.99,8.78,33.68,8.78,28.12,0,43.85-13.44,43.85-32.28,0-14.26-7.94-24.61-28.3-31.42Z"/>
      </g>
      <g>
        <path class="cls-3" d="M564.87,1035.53h-27.34v4.34l7.76.85c.15,7.81.16,15.66.16,23.44v3.31c0,8.48,0,16.44-.15,24.14l-7.77.85v4.34h25.6c19.07,0,32.4-11.07,32.4-30.67s-12.02-30.59-30.65-30.59ZM562.88,1092h-5.29c-.16-7.96-.16-16.04-.16-24.57v-3.27c0-8.05,0-16.02.17-23.84h5.78c12.01,0,19.24,9.02,19.24,25.87s-7.23,25.82-19.73,25.82Z"/>
        <path class="cls-3" d="M632.48,1051.27c-4.86,0-10.15,4.26-12.88,12.17l-.95-11.21-1.49-.96-15.44,5.85v3.44l6.51.83c.18,3.69.28,6.05.28,11.13v4.88c0,4.01-.05,9.88-.14,14.47l-5.91,1.15v3.77h24.81v-3.77l-7.52-1.46c-.09-4.54-.13-10.23-.13-14.15v-6.52c1.37-4.94,3.78-8.91,7-11.63l.84.92c1.93,2.17,3.89,3.27,6.35,3.27,3.69,0,5.86-2.57,5.97-7.15-.94-3.24-3.95-5-7.3-5Z"/>
        <path class="cls-3" d="M682.84,1069.86c0-11.17-7.23-18.59-18.1-18.59-11.69,0-22.45,8.88-22.45,23.65s8.81,23.17,21.73,23.17c8.68,0,14.96-3.85,18.52-10.75l-2.67-2.34c-3.05,3.37-6.61,5.74-12.05,5.74-7.72,0-13.31-5.24-13.75-15.82h28.18c.37-1.37.58-3.01.58-5.07ZM666.74,1070.54h-12.6c.73-10.93,5.43-14.81,9.9-14.81s8.22,3.89,8.22,9.56c0,3.37-1.08,5.25-5.52,5.25Z"/>
        <path class="cls-3" d="M728.38,1092.26c-1.72,0-2.74-1.17-2.74-4.14v-20.15c0-12.01-4.65-16.69-15.35-16.69-11.3,0-18.44,4.78-19.55,12.14.46,2.68,2.31,4.17,5.21,4.17s5.23-1.99,5.76-6.43l1.08-5.09c1.47-.25,2.72-.33,3.87-.33,5.99,0,8.07,2.32,8.07,10.93v2.63c-3.19.82-6.43,1.76-8.79,2.52-13.32,4.32-16.54,8.72-16.54,14.6,0,7.63,5.29,11.68,12.24,11.68,5.86,0,8.87-2.46,13.43-7.09,1.05,4.33,4.24,6.92,9.14,6.92,4.39,0,7.29-1.57,9.51-5.86l-2.15-1.83c-1.05,1.37-1.93,2.03-3.19,2.03ZM706.69,1091.34c-3.67,0-6.5-2.04-6.5-6.8,0-3.53,1.84-6.83,8.05-9.32,1.56-.67,3.94-1.47,6.48-2.2v14.55c-4.01,2.87-5.63,3.77-8.03,3.77Z"/>
        <path class="cls-3" d="M809.06,1077.4v-9.92c0-11.21-4.24-16.2-12.61-16.2-5.59,0-10.85,2.38-15.87,8.42-1.67-5.76-5.5-8.42-11.53-8.42-5.63,0-10.88,3.01-15.37,8.12l-.67-7.17-1.49-.96-15.44,5.85v3.44l6.51.83c.22,3.69.28,6.08.28,11.16v4.85c0,4.01-.05,9.86-.14,14.44l-5.96,1.18v3.77h22.8v-3.77l-5.45-1.12c-.09-4.59-.14-10.47-.14-14.5v-13.77c3.26-2.86,6.54-4.63,10.05-4.63,4.79,0,6.54,2.57,6.54,10.07v8.33c0,4.12-.04,9.9-.13,14.44l-5.86,1.18v3.77h22.56v-3.77l-5.45-1.14c-.09-4.54-.14-10.35-.14-14.48v-9.65c0-1.47-.07-2.82-.21-4.08,3.53-3.14,6.78-4.67,10.2-4.67,4.6,0,6.53,2.15,6.53,9.95v8.45c0,4.12-.05,9.91-.14,14.44l-5.69,1.18v3.77h22.53v-3.77l-5.59-1.15c-.09-4.54-.14-10.34-.14-14.47Z"/>
        <path class="cls-3" d="M851.63,1083.24c-4.14,0-7.41,3.4-7.41,7.51s3.27,7.35,7.41,7.35,7.41-3.33,7.41-7.35-3.27-7.51-7.41-7.51Z"/>
        <path class="cls-3" d="M930.37,1091.9h-20.57c-.16-7.82-.16-15.76-.16-24.13h11.98l1.13,7.96h4.77v-20.87h-4.77l-1.2,8.05h-11.91c0-7.58.02-15.09.16-22.46h18.72l1.94,11.24h6.46l-.65-16.17h-46.54v4.34l7.76.85c.15,7.81.16,15.66.16,23.44v4.01c0,7.91,0,15.76-.16,23.44l-7.77.85v4.34h48.39l.65-16.17h-6.46l-1.95,11.28Z"/>
        <polygon class="cls-3" points="971.52 1072.84 983.53 1057.42 988.86 1056.39 988.86 1052.58 987.29 1052.58 980.9 1052.58 972.14 1052.58 972.14 1056.39 977.4 1057.46 969.04 1069.11 961.15 1057.22 966.04 1056.39 966.04 1052.58 958.06 1052.58 945.59 1052.58 942.88 1052.58 942.88 1056.39 948.65 1057.29 960.79 1075.98 948.54 1091.93 942.4 1093.02 942.4 1096.79 944.81 1096.79 951.12 1096.79 960.42 1096.79 960.42 1093.02 954.6 1091.94 963.29 1079.8 971.41 1092.1 965.88 1093.02 965.88 1096.79 974.5 1096.79 987.37 1096.79 990.27 1096.79 990.27 1093.02 984.14 1091.91 971.52 1072.84"/>
        <path class="cls-3" d="M1023.14,1051.27c-5.14,0-9.69,2.11-13.81,6.58l-.51-5.69-1.45-.89-15.37,5.85v3.44l6.51.83c.18,3.69.28,6.08.28,11.16v25.72c0,4.72-.05,9.68-.16,15.05l-6.34,1.22v3.81h24.76v-3.81l-7.26-1.39c-.11-5.34-.16-10.32-.16-14.99v-5.67c3.42,3.95,7.33,5.6,12,5.6,10.6,0,19.34-9.05,19.34-23.61s-7.89-23.21-17.82-23.21ZM1018.1,1091.62c-3,0-5.57-1.21-8.2-3.62v-26.07c3.1-2.51,6.02-4.08,8.84-4.08,6.12,0,10.41,5.76,10.41,17.16s-4.81,16.62-11.05,16.62Z"/>
        <path class="cls-3" d="M1063.74,1077.4v-34.45l.37-13.01-1.39-.84-16.77,4.16v3.57l6.68.92v39.65c0,4.8-.07,9.61-.17,14.41l-6.27,1.2v3.77h24.01v-3.77l-6.27-1.17c-.1-4.82-.17-9.63-.17-14.45Z"/>
        <path class="cls-3" d="M1098.14,1051.27c-11.94,0-22.28,8.65-22.28,23.41s9.72,23.41,22.28,23.41,22.28-8.56,22.28-23.41-10.45-23.41-22.28-23.41ZM1098.14,1093.6c-6.69,0-10.24-6.03-10.24-18.81s3.54-19.01,10.24-19.01,10.24,6.27,10.24,19.01-3.66,18.81-10.24,18.81Z"/>
        <path class="cls-3" d="M1157.11,1051.27c-4.86,0-10.15,4.26-12.88,12.17l-.95-11.21-1.49-.96-15.44,5.85v3.44l6.51.83c.18,3.69.28,6.05.28,11.13v4.88c0,4.01-.05,9.88-.14,14.47l-5.91,1.15v3.77h24.81v-3.77l-7.52-1.46c-.09-4.54-.13-10.23-.13-14.15v-6.52c1.37-4.94,3.78-8.91,7-11.63l.84.92c1.93,2.17,3.89,3.27,6.35,3.27,3.69,0,5.86-2.57,5.97-7.15-.94-3.24-3.95-5-7.3-5Z"/>
        <path class="cls-3" d="M1207.46,1069.86c0-11.17-7.23-18.59-18.1-18.59-11.69,0-22.45,8.88-22.45,23.65s8.81,23.17,21.73,23.17c8.67,0,14.96-3.85,18.52-10.75l-2.67-2.34c-3.05,3.37-6.61,5.74-12.05,5.74-7.72,0-13.31-5.24-13.75-15.82h28.18c.37-1.37.58-3.01.58-5.07ZM1191.37,1070.54h-12.6c.73-10.93,5.43-14.81,9.9-14.81s8.22,3.89,8.22,9.56c0,3.37-1.08,5.25-5.52,5.25Z"/>
        <path class="cls-3" d="M1245.58,1083.24c-4.14,0-7.41,3.4-7.41,7.51s3.27,7.35,7.41,7.35,7.41-3.33,7.41-7.35-3.27-7.51-7.41-7.51Z"/>
        <path class="cls-3" d="M1311.04,1035.53h-27.34v4.34l7.76.85c.15,7.81.16,15.66.16,23.44v3.31c0,8.48,0,16.44-.15,24.14l-7.77.85v4.34h25.6c19.07,0,32.4-11.07,32.4-30.67s-12.02-30.59-30.65-30.59ZM1309.05,1092h-5.29c-.16-7.96-.16-16.04-.16-24.57v-3.27c0-8.05,0-16.02.17-23.84h5.78c12.01,0,19.24,9.02,19.24,25.87s-7.23,25.82-19.73,25.82Z"/>
        <path class="cls-3" d="M1359.95,1042.67c3.89,0,6.98-2.74,6.98-6.6s-3.09-6.6-6.98-6.6-6.98,2.68-6.98,6.6,3.09,6.6,6.98,6.6Z"/>
        <path class="cls-3" d="M1365.58,1077.4v-12.22l.28-12.94-1.49-.96-16.69,5.85v3.44l6.62.83c.19,3.69.28,6.56.28,11.64v4.37c0,4-.04,9.85-.14,14.42l-6.04,1.19v3.77h22.9v-3.77l-5.59-1.13c-.09-4.59-.14-10.47-.14-14.48Z"/>
        <path class="cls-3" d="M1399.31,1069.94l-3.65-1.15c-6.31-2.11-8.15-3.78-8.15-7.12,0-3.61,2.85-5.76,7.77-5.76,2.21,0,4.01.37,5.75,1.12l1.68,7.73h6.04l.51-9.73c-4.38-2.4-8.53-3.75-13.75-3.75-11.37,0-17.61,6.39-17.61,13.99,0,6.62,4.23,10.8,11.17,13.09l4.62,1.5c5.95,1.95,8.18,3.92,8.18,7.35,0,3.98-3.12,6.26-9.32,6.26-2.7,0-5-.48-7.2-1.41l-1.68-8.56h-6.18l.06,10.71c4.69,2.58,9.28,3.88,14.89,3.88,12.43,0,19.38-5.94,19.38-14.27,0-6.3-3.51-10.88-12.51-13.89Z"/>
        <path class="cls-3" d="M1443.5,1090.75c-8.21,0-13.85-6.1-13.85-17.23,0-12.16,5.76-17.79,12.4-17.79,1.13,0,2.26.12,3.41.35l1.17,5.52c.54,4.44,2.66,6.49,6.01,6.49,2.82,0,4.47-1.31,5.21-4.13-.93-7.1-7.76-12.69-16.76-12.69-12.41,0-23.08,8.72-23.08,23.52s9.2,23.3,21.81,23.3c8.71,0,15-3.91,18.03-11.51l-2.73-1.99c-2.76,3.84-6.76,6.15-11.64,6.15Z"/>
        <path class="cls-3" d="M1486.27,1051.27c-11.94,0-22.28,8.65-22.28,23.41s9.72,23.41,22.28,23.41,22.28-8.56,22.28-23.41-10.45-23.41-22.28-23.41ZM1486.27,1093.6c-6.69,0-10.24-6.03-10.24-18.81s3.54-19.01,10.24-19.01,10.24,6.27,10.24,19.01-3.66,18.81-10.24,18.81Z"/>
        <polygon class="cls-3" points="1549.5 1052.58 1541.03 1052.58 1541.03 1056.39 1547.77 1057.59 1538.53 1084.37 1528.45 1057.55 1535.52 1056.39 1535.52 1052.58 1526.58 1052.58 1514.15 1052.58 1511.29 1052.58 1511.29 1056.39 1516.12 1057.28 1532.81 1097.14 1538.25 1097.14 1553.36 1057.49 1558.5 1056.39 1558.5 1052.58 1555.23 1052.58 1549.5 1052.58"/>
        <path class="cls-3" d="M1601.05,1069.86c0-11.17-7.23-18.59-18.1-18.59-11.69,0-22.45,8.88-22.45,23.65s8.81,23.17,21.73,23.17c8.67,0,14.96-3.85,18.52-10.75l-2.67-2.34c-3.05,3.37-6.61,5.74-12.05,5.74-7.72,0-13.31-5.24-13.75-15.82h28.18c.37-1.37.58-3.01.58-5.07ZM1584.95,1070.54h-12.6c.73-10.93,5.43-14.81,9.9-14.81s8.22,3.89,8.22,9.56c0,3.37-1.08,5.25-5.52,5.25Z"/>
        <path class="cls-3" d="M1637.87,1051.27c-4.86,0-10.15,4.26-12.88,12.17l-.95-11.21-1.49-.96-15.44,5.85v3.44l6.51.83c.18,3.69.28,6.05.28,11.13v4.88c0,4.01-.05,9.88-.14,14.47l-5.91,1.15v3.77h24.81v-3.77l-7.52-1.46c-.09-4.54-.13-10.23-.13-14.15v-6.52c1.37-4.94,3.78-8.91,7-11.63l.84.92c1.93,2.17,3.89,3.27,6.35,3.27,3.69,0,5.86-2.57,5.97-7.15-.94-3.24-3.95-5-7.3-5Z"/>
      </g>
    </g>
  </g>
</svg>